<?xml version="1.0" encoding="UTF-8"?>
<svg width="1200" height="600" viewBox="0 0 1200 600" fill="none" xmlns="http://www.w3.org/2000/svg" role="img" aria-label="ContentOne Twitter Card Image">
  <title>ContentOne — Performance-Driven Content Agency</title>
  <defs>
    <linearGradient id="g1" x1="0" y1="0" x2="1200" y2="600" gradientUnits="userSpaceOnUse">
      <stop stop-color="#6366F1"/>
      <stop offset="1" stop-color="#06B6D4"/>
    </linearGradient>
    <linearGradient id="g2" x1="0" y1="0" x2="0" y2="600" gradientUnits="userSpaceOnUse">
      <stop stop-color="#0A0A0A" />
      <stop offset="1" stop-color="#0E0E0E" />
    </linearGradient>
  </defs>

  <!-- Background -->
  <rect width="1200" height="600" fill="url(#g2)"/>

  <!-- Border -->
  <rect x="24" y="24" width="1152" height="552" rx="24" stroke="url(#g1)" stroke-width="2" opacity="0.25"/>

  <!-- Accents -->
  <g opacity="0.25">
    <ellipse cx="280" cy="120" rx="240" ry="90" fill="#6366F1"/>
    <ellipse cx="950" cy="500" rx="240" ry="100" fill="#06B6D4"/>
  </g>

  <!-- Headline -->
  <g font-family="Satoshi, Inter, system-ui, -apple-system, Segoe UI" fill="#F8F8F8">
    <text x="80" y="230" font-size="54" font-weight="800">ContentOne</text>
    <text x="80" y="288" font-size="32" fill="#B8B8B8">Performance-Driven Content Agency</text>
  </g>

  <!-- Divider -->
  <rect x="80" y="315" width="220" height="6" rx="3" fill="url(#g1)"/>

  <!-- Subcopy -->
  <g font-family="Inter, system-ui, -apple-system, Segoe UI" fill="#B8B8B8">
    <text x="80" y="370" font-size="26">Transform your content into assets that convert.</text>
    <text x="80" y="410" font-size="20">Strategy • Design • Performance • AI-enhanced execution</text>
  </g>

  <!-- Monogram -->
  <g transform="translate(940,120)">
    <rect x="0" y="0" width="160" height="160" rx="24" fill="rgba(99,102,241,0.08)"/>
    <rect x="0" y="0" width="160" height="160" rx="24" stroke="url(#g1)" stroke-width="2" opacity="0.35"/>
    <g fill="url(#g1)">
      <path d="M56 116c-20 0-36-16-36-36s16-36 36-36c12 0 22 6 28 14l-12 8c-4-5-9-10-16-10-12 0-20 10-20 24s8 24 20 24c7 0 13-4 17-9l12 8c-7 10-17 13-29 13z"/>
      <rect x="104" y="44" width="18" height="72" rx="6" opacity="0.9"/>
    </g>
  </g>

  <!-- URL -->
  <text x="80" y="470" font-family="Inter, system-ui" font-size="20" fill="#B8B8B8">https://contentone.com</text>
</svg>